<?xml version="1.0" encoding="UTF-8"?>
<svg viewBox="0 0 640 150" xmlns="http://www.w3.org/2000/svg">
 <defs>
  <linearGradient id="b" x1=".90873" x2="-.47619" y1=".63281" y2="-.14062">
   <stop stop-color="#f3f3f3" offset="0"/>
   <stop stop-color="#fff" offset=".3765"/>
   <stop stop-color="#e6ffff" offset="1"/>
  </linearGradient>
  <radialGradient id="a" cx=".46269" cy=".4375" r=".52991">
   <stop stop-color="#fff" stop-opacity=".498" offset="0"/>
   <stop stop-color="#fff" stop-opacity="0" offset="1"/>
  </radialGradient>
 </defs>
 <g fill-rule="evenodd">
  <path d="m593.96 75.869c0 18.131-15.037 32.846-33.565 32.846s-33.565-14.715-33.565-32.846 15.037-32.846 33.565-32.846 33.565 14.715 33.565 32.846z" fill="#fb0" fill-opacity=".981" stroke-linejoin="round" stroke-width="1.308"/>
  <g stroke-width="1.25">
   <g fill="#fb0" fill-opacity=".981" stroke-linecap="round" stroke-linejoin="round">
    <path d="m556.56 25.094c-2.6327 5.566 3.7563 13.98 8.753 7.6635 1.9257-5.4983 0.55762-11.526 1.2093-17.244 1.2767-4.9953-0.71356-9.0066-6.2673-9.6023-3.213 0.62886-2.7829 12.669-3.695 19.183z"/>
    <path d="m520.74 14.56c-1.8957 0.059607-3.5837 1.1908-4.3259 2.8989-0.742 1.7081-0.40326 3.6825 0.86822 5.0598 0 0 3.9566 4.374 16.266 18.062 1.1219 1.3692 2.9218 2.0243 4.6852 1.7054 1.7635-0.31896 3.2052-1.5605 3.7526-3.2316 0.54755-1.6711 0.11237-3.5015-1.1328-4.7644-12.305-13.684-16.217-18.062-16.217-18.062-0.96899-1.1107-2.405-1.7255-3.8961-1.668z"/>
    <path d="m496.92 39.104c-0.50324 1.7636-1.2055 4.6758 1.7084 5.7961 6.7008 4.4617 14.469 6.4159 22.683 9.7377 3.1588 1.2376 6.7982-1.6227 6.4482-4.8835-0.14832-3.0946-3.4786-4.3799-6.0275-5.2467-6.3984-2.6061-12.952-4.8288-19.481-7.0994-1.9315-0.19328-3.7548 0.70502-5.3312 1.6957z"/>
    <path d="m490.25 74.596c0.20883 2.2202-0.97186 4.7826 1.1479 6.0835 4.4323 1.447 14.968 1.3945 22.936 1.4739 3.8612-0.29755 5.7432-5.6556 2.7667-8.1469-2.2901-2.1297-5.6207-1.1725-8.4438-1.47-3.3113-0.072868-19.121-0.60484-18.407 2.0595z"/>
    <path d="m520.35 90.668c-0.7663 0.019203-1.5172 0.21512-2.1914 0.57187-9.2126 4.6442-13.933 6.9695-16.314 8.1016-1.1098 0.52746-1.6367 0.74406-1.8994 0.85783-0.019287 0.008308-0.13046 0.040977-0.146 0.047661-2.2882 0.73629-3.6828 2.9988-3.2808 5.3229 0.40186 2.3241 2.4795 4.0116 4.8878 3.9701 0 0 0.63968-0.014664 0.828-0.047646 0.18826-0.032936 0.3338-0.067726 0.43829-0.095314 0.2088-0.055153 0.32947-0.10445 0.4382-0.14295 0.21756-0.077011 0.35806-0.14174 0.58441-0.23828 0.4527-0.19312 1.1298-0.49889 2.3864-1.0961 2.5131-1.1944 7.3099-3.5348 16.558-8.1969 2.0737-0.98042 3.1622-3.2482 2.6091-5.436-0.55286-2.1878-2.5962-3.6975-4.898-3.6187z"/>
    <path d="m534.28 108.73c-1.2507 0.04258-2.4365 0.55455-3.3117 1.4297-8.3721 8.1927-12.597 12.172-14.61 14.011-0.78461 0.71653-0.97205 0.88356-1.1688 1.0484-0.008423 0.007133-0.041138 0.041405-0.048584 0.047646-1.4941 0.86683-2.4033 2.4466-2.3862 4.1461 0 0 0.19458 1.4295 0.1947 1.4297 0 1.83e-4 1.1198 1.8107 1.1201 1.8109 2.44e-4 2.59e-4 1.8987 1.2389 1.8992 1.2391 6.1e-4 2.14e-4 1.6548 0.28596 1.6559 0.28596 0.001038 0 0.7619-0.040878 1.0228-0.095337 0.26074-0.054413 0.42114-0.13382 0.58429-0.19063 0.32654-0.11356 0.5249-0.20402 0.68176-0.28592 0.6275-0.3275 0.73987-0.43622 0.974-0.61954 0.46838-0.36665 1.0517-0.86197 2.1428-1.8586 2.1824-1.9932 6.3944-5.9715 14.805-14.202 1.455-1.3703 1.8948-3.4771 1.1058-5.2961-0.78888-1.819-2.643-2.9729-4.6608-2.9009z"/>
    <path d="m562.18 114.73c-1.2919 0.049675-2.5107 0.60002-3.3876 1.5297-0.87689 0.92969-1.3402 2.1624-1.2876 3.4266 0.20166 8.0898-1.6531 17.862 0.85706 21.189 2.8915 1.2577 4.5486 1.1147 4.5486 1.1147l3.9062-1.353c0.96387-3.1442 0.98761-8.1764 0.42816-21.189-0.012268-1.2893-0.55786-2.5188-1.5122-3.4078-0.95441-0.889-2.2361-1.3617-3.5526-1.3102z"/>
    <path d="m587.02 111.45c-1.8038-0.025993-3.4746 0.92593-4.342 2.4739-0.86762 1.548-0.78943 3.4384 0.20258 4.9129 5.0935 7.7533 7.934 11.589 9.74 13.677 0.90302 1.0443 1.5154 1.6499 2.3376 2.2398 0.41113 0.295 0.85889 0.60599 1.7044 0.85782 0.42297 0.1259 0.96527 0.25441 1.6072 0.23828 0.32098-0.008057 0.66956-0.060226 1.0226-0.14296 0.35321-0.082718 1.0228-0.38126 1.0228-0.38126 1.6456-0.77924 2.7065-2.3946 2.7477-4.1832 0.041077-1.7885-0.94476-3.4489-2.5529-4.2997-0.036316-0.038628-3.05e-4 -0.017609-0.43835-0.52424-1.2708-1.4697-4.0334-5.0542-9.0093-12.629-0.87347-1.3678-2.3944-2.2106-4.0423-2.2398z"/>
    <path d="m602.02 93.432c-2.1456 0.23989-3.8735 1.8338-4.2449 3.9155-0.37146 2.0818 0.70227 4.1543 2.6379 5.0916 5.6367 2.847 12.616 8.4069 17.288 7.5111 3.8659-0.73151 4.1976-3.3495 3.8865-5.9676-0.6427-2.5153-2.887-3.7829-16.695-10.026-0.88031-0.45847-1.8832-0.64145-2.8733-0.5242z"/>
    <path d="m628.32 69.27c-0.5318 0.011398-1.0583 0.10799-1.5582 0.28596-0.3078 0.028694-0.61426 0.046799-1.7046 0.095291-2.9296 0.13033-9.0115 0.23827-21.282 0.23827-1.7564-0.0243-3.39 0.87869-4.2754 2.3632-0.88532 1.4845-0.88532 3.3205 0 4.805 0.8855 1.4845 2.5191 2.3875 4.2754 2.3632 12.344 0 18.496-0.14253 21.72-0.28593 1.6119-0.071732 2.4937-0.10102 3.1655-0.19064 0.33582-0.044823 0.56116-0.06427 1.12-0.2383 0.27954-0.086998 0.643-0.17122 1.315-0.61953 0.16791-0.11209 0.37567-0.28786 0.58441-0.47656 0.20862-0.18872 0.68134-0.71433 0.68182-0.71483 3.05e-4 -5.42e-4 0.58423-1.1912 0.58441-1.1914 0-2.9e-4 0.29218-1.5727 0.29218-1.5727 0.026184-1.2886-0.48193-2.5327-1.4087-3.4486-0.92664-0.91586-2.193-1.4254-3.5101-1.4124z"/>
    <path d="m626.72 44.145c-5.1408 0-5.1424-0.30821-23.58 4.5373-1.7518 0.34984-3.167 1.6109-3.6864 3.2851-0.51959 1.6742-0.059753 3.4923 1.1976 4.7364 1.2573 1.244 3.1099 1.7138 4.8265 1.2239 8.4306-2.0122 22.125-4.4334 22.616-7.3193 2.4338-2.4688 0.36938-4.3089-1.3737-6.4633z"/>
    <path d="m602.52 16.18c-2.8915 1.5721-6.4163 4.7386-15.748 18.158-1.4524 2.224-0.78748 5.1792 1.4854 6.6004 2.2728 1.4213 5.2925 0.77052 6.7449-1.4535 4.7626-7.2948 12.03-15.74 12.642-18.746-0.42279-2.4627-2.7732-4.2966-5.1239-4.5585z"/>
   </g>
   <path d="m573.82 66.401c0 10.653-9.0544 19.299-20.211 19.299-11.156 0-20.211-8.6459-20.211-19.299s9.0544-19.299 20.211-19.299c11.156 0 20.211 8.6459 20.211 19.299z" fill="url(#a)"/>
  </g>
  <g fill="url(#b)" stroke="#000" stroke-linejoin="round" stroke-width="1.123">
   <path d="m417.38 59.421c-0.9126-4.6837-8.6294-11.548-13.252-10.265-5.7883 1.6664-8.4545 7.0549-4.3176 11.117-3.6601-2.5825-12.792-4.8046-17.742 4.1928-3.0726 6.7026 5.6285 10.896 8.2903 10.4-5.0934-0.63867-17.642 10.284-12.055 15.847 6.8848 5.6553 22.655-0.4601 23.348-5.1837-1.5364 6.9073 15.986 8.2334 16.42-1.3667-1.2506 4.5009 11.252 9.2914 17.196 7.4587 7.4494-1.8949 6.5537-8.292 5.6722-10.242 5.7299 0.68277 14.701 2.3759 18.676-3.7636 2.77-5.8018 1.1232-12.282-2.4427-14.32-3.8853-1.9275-8.1306-1.827-13.082 1.4378 3.929-2.6662 1.5058-11.264-2.432-13.153-4.4877-2.1452-9.8795-2.5638-14.722-1.5208-3.9902 0.66632-10.305 4.1746-9.5557 9.3619z"/>
   <path d="m306.38 29.421c-0.9126-4.6837-8.6294-11.548-13.252-10.265-5.7883 1.6664-8.4545 7.0549-4.3176 11.117-3.6601-2.5825-12.792-4.8046-17.742 4.1928-3.0726 6.7026 5.6285 10.896 8.2903 10.4-5.0934-0.63867-17.642 10.284-12.055 15.847 6.8848 5.6553 22.655-0.4601 23.348-5.1837-1.5364 6.9073 15.986 8.2334 16.42-1.3667-1.2506 4.5009 11.252 9.2914 17.196 7.4587 7.4494-1.8949 6.5537-8.292 5.6722-10.242 5.7299 0.68277 14.701 2.3759 18.676-3.7636 2.77-5.8018 1.1232-12.282-2.4427-14.32-3.8853-1.9275-8.1306-1.827-13.082 1.4378 3.929-2.6662 1.5058-11.264-2.432-13.153-4.4877-2.1452-9.8795-2.5638-14.722-1.5208-3.9902 0.66632-10.305 4.1746-9.5557 9.3619z"/>
   <path d="m184.38 67.421c-0.9126-4.6837-8.6294-11.548-13.252-10.265-5.7883 1.6664-8.4545 7.0549-4.3176 11.117-3.6601-2.5825-12.792-4.8046-17.742 4.1928-3.0726 6.7026 5.6285 10.896 8.2903 10.4-5.0934-0.63867-17.642 10.284-12.055 15.847 6.8848 5.6553 22.655-0.4601 23.348-5.1837-1.5364 6.9073 15.986 8.2334 16.42-1.3667-1.2506 4.5009 11.252 9.2914 17.196 7.4587 7.4494-1.8949 6.5537-8.292 5.6722-10.242 5.7299 0.68277 14.701 2.3759 18.676-3.7636 2.77-5.8018 1.1232-12.282-2.4427-14.32-3.8853-1.9275-8.1306-1.827-13.082 1.4378 3.929-2.6662 1.5058-11.264-2.432-13.153-4.4877-2.1452-9.8795-2.5638-14.722-1.5208-3.9902 0.66632-10.305 4.1746-9.5557 9.3619z"/>
   <path d="m69.38 31.421c-0.9126-4.6837-8.6294-11.548-13.252-10.265-5.7883 1.6664-8.4545 7.0549-4.3176 11.117-3.6601-2.5825-12.792-4.8046-17.742 4.1928-3.0726 6.7026 5.6285 10.896 8.2903 10.4-5.0934-0.63867-17.642 10.284-12.055 15.847 6.8848 5.6553 22.655-0.4601 23.348-5.1837-1.5364 6.9073 15.986 8.2334 16.42-1.3667-1.2506 4.5009 11.252 9.2914 17.196 7.4587 7.4494-1.8949 6.5537-8.292 5.6722-10.242 5.7299 0.68277 14.701 2.3759 18.676-3.7636 2.77-5.8018 1.1232-12.282-2.4427-14.32-3.8853-1.9275-8.1306-1.827-13.082 1.4378 3.929-2.6662 1.5058-11.264-2.432-13.153-4.4877-2.1452-9.8795-2.5638-14.722-1.5208-3.9902 0.66632-10.305 4.1746-9.5557 9.3619z"/>
  </g>
 </g>
</svg>
